<svg width="108" height="108" viewBox="0 0 108 108" fill="none" xmlns="http://www.w3.org/2000/svg">
<path d="M54 108C83.8234 108 108 83.8234 108 54C108 24.1766 83.8234 0 54 0C24.1766 0 0 24.1766 0 54C0 83.8234 24.1766 108 54 108Z" fill="url(#paint0_linear_5_91)" fill-opacity="0.08"/>
<path d="M96.2007 50.4291C96.5752 42.6488 91.1411 37.4875 85.0084 33.9439L81.0221 57.3624C83.7819 57.2083 85.1312 58.256 85.6217 58.749C86.2351 59.3653 87.7682 61.2141 85.9284 64.1413C89.7612 63.5252 95.748 59.8273 96.2007 50.4291Z" fill="url(#paint1_linear_5_91)"/>
<path fill-rule="evenodd" clip-rule="evenodd" d="M43.9108 23.1639L39.1579 18.3878C46.3126 17.5147 65.1909 18.6343 83.4663 30.097C83.773 31.3295 83.4663 33.1783 83.4663 33.1783L84.9994 33.9487C86.3283 35.8489 88.5871 41.2518 86.9927 47.6609C85.3983 54.0703 82.6487 56.8022 81.4733 57.3672C79.0202 57.3672 74.85 58.7847 73.5008 65.0706C72.1515 71.3566 69.5655 72.7227 68.4412 72.62L41.4576 72.9282L23.6728 62.4517L21.0664 40.7279L26.1259 33.9487L35.1716 26.5534L41.6108 23.9343L43.9108 23.1639ZM75.78 32.1378C74.5902 33.3771 73.4776 33.9719 73.1598 34.1332C66.2118 32.655 63.7085 29.0606 63.7085 29.0606C70.2624 29.0201 76.1777 30.5788 80.5055 33.2158C80.5055 33.2158 78.1626 32.4568 75.78 32.1378Z" fill="url(#paint2_linear_5_91)"/>
<path fill-rule="evenodd" clip-rule="evenodd" d="M73.263 65.0731C68.5 67.4103 62.8532 68.7635 56.7983 68.7635C39.7787 68.7635 25.9816 58.0719 25.9816 44.8827C25.9816 35.1403 33.5101 26.7605 44.3047 23.0462C23.7745 24.2291 7.27673 40.7219 7.27673 61.0727C7.27673 84.5593 28.2127 103.966 54.0384 103.966C73.3231 103.966 89.3758 92.7848 97.7692 77.8255C86.22 80.4229 72.5484 75.4847 73.263 65.0731Z" fill="url(#paint3_linear_5_91)"/>
<defs>
<linearGradient id="paint0_linear_5_91" x1="54" y1="37.7905" x2="54" y2="109.42" gradientUnits="userSpaceOnUse">
<stop stop-color="white"/>
<stop offset="1" stop-color="white" stop-opacity="0"/>
</linearGradient>
<linearGradient id="paint1_linear_5_91" x1="96.1887" y1="60.5329" x2="105.311" y2="27.0261" gradientUnits="userSpaceOnUse">
<stop stop-color="white"/>
<stop offset="1" stop-color="#E2F8FF"/>
</linearGradient>
<linearGradient id="paint2_linear_5_91" x1="124.356" y1="136.07" x2="151.552" y2="27.7521" gradientUnits="userSpaceOnUse">
<stop stop-color="#E1CAFF"/>
<stop offset="1" stop-color="#B4EDFF"/>
</linearGradient>
<linearGradient id="paint3_linear_5_91" x1="97.5898" y1="94.296" x2="109.231" y2="-0.720254" gradientUnits="userSpaceOnUse">
<stop stop-color="#F3EAFF"/>
<stop offset="1" stop-color="#F7FDFF"/>
</linearGradient>
</defs>
</svg>
