<svg width="40" height="40" viewBox="0 0 40 40" fill="none" xmlns="http://www.w3.org/2000/svg">
<path fill-rule="evenodd" clip-rule="evenodd" d="M16.7046 2.33451L14.6594 0.108116C17.7381 -0.298858 25.8611 0.223026 33.7248 5.56635C33.827 6.30435 33.805 7.04 33.805 7.04L34.0107 7.1542C34.3863 7.66976 34.8176 8.63815 35.0751 9.83724C35.3316 11.033 35.4033 12.4041 35.1066 13.7098C34.8065 15.0302 34.2365 16.1211 33.6781 16.9191C33.1066 17.7359 32.583 18.1968 32.4171 18.2962L32.3647 18.3277C31.3938 18.5088 30.0529 19.2208 29.5081 21.0128C27.9141 22.0054 25.2208 23.0925 21.5595 23.0925C18.3146 23.0925 15.0112 22.1532 12.5349 20.3442C10.0734 18.5461 8.42705 15.8925 8.42705 12.3958C8.42705 9.6221 9.67019 7.45242 11.2582 5.84929C12.8588 4.23348 15.0473 2.92642 16.3003 2.49738L16.6107 2.39111L16.5922 2.37528L16.7046 2.33451ZM30.2389 6.69719C29.6198 7.38953 29.041 7.72171 28.8757 7.81178C25.2606 6.98617 23.9582 4.97823 23.9582 4.97823C27.3681 4.95564 30.4458 5.82642 32.6975 7.29946C32.6975 7.29946 31.4786 6.87536 30.2389 6.69719Z" fill="#3164FA"/>
<path d="M13.4447 2.71335C5.77637 4.54396 0 11.5625 0 20.0053C0 30.9536 9.2542 40 20.6698 40C29.1942 40 36.2898 34.788 40 27.8147C35.1736 28.9593 29.4315 26.9936 29.1477 22.6508C29.1565 22.617 29.1651 22.5828 29.1738 22.5482C27.3727 23.4648 24.8026 24.2675 21.5595 24.2675C18.1079 24.2675 14.5511 23.2723 11.8417 21.293C9.11742 19.3028 7.25205 16.3145 7.25205 12.3958C7.25205 9.23717 8.67675 6.78564 10.4234 5.02237L10.424 5.02174C11.2387 4.20711 12.2919 3.42998 13.26 2.8269C13.3219 2.78839 13.3834 2.75052 13.4447 2.71335Z" fill="#3164FA"/>
<path d="M7.43954 12.3958C7.43954 9.29862 8.83526 6.89207 10.5566 5.15433C11.5526 4.15834 12.9181 3.21313 14.0397 2.58255C12.9181 3.21313 11.5526 4.15834 10.5566 5.15433C8.83526 6.89207 7.43954 9.29862 7.43954 12.3958Z" fill="#3164FA"/>
<path d="M33.9492 18.4689C34.3019 18.6132 34.5175 18.8027 34.6304 18.9223C34.9014 19.2096 35.5792 20.0714 34.7659 21.4359C36.4601 21.1487 39.1065 19.425 39.3065 15.044C39.4394 12.1317 37.9169 10.0066 35.9081 8.42706C36.0293 8.7928 36.1365 9.1835 36.2239 9.59069C36.5072 10.911 36.5956 12.4598 36.2523 13.9702C35.9125 15.4657 35.2691 16.6949 34.6409 17.5928C34.4081 17.9255 34.1724 18.2196 33.9492 18.4689Z" fill="#3164FA"/>
</svg>
