<svg width="89" height="38" viewBox="0 0 89 38" fill="none" xmlns="http://www.w3.org/2000/svg">
<path d="M6.12885 31.8052L5.91572 32.226C5.89637 32.2409 5.87626 32.2549 5.85549 32.2677C5.8448 32.2736 5.83293 32.2771 5.82074 32.2778C3.9675 32.2814 2.11631 32.2845 0.267177 32.287C0.193819 32.287 0.120461 32.2793 0.0471033 32.2731C0.0370649 32.2731 0.0277987 32.2615 0 32.2438C0.033204 32.0755 0.169881 31.9565 0.241694 31.8052C0.318913 31.6384 0.466401 31.5573 0.623155 31.4755C1.56831 30.982 2.13201 30.1867 2.38451 29.1682C2.4618 28.8315 2.50832 28.4886 2.52351 28.1435C2.60381 26.8127 2.67537 25.4818 2.73817 24.1505C2.78219 23.2015 2.80999 22.2517 2.8347 21.3019C2.86235 20.3439 2.59524 19.4005 2.06946 18.5993C2.05016 18.5684 2.03085 18.5367 2.01232 18.5043C2.0044 18.4868 1.99795 18.4687 1.99301 18.4502C2.08526 18.1861 2.20455 17.9323 2.34899 17.6927H8.48093C8.66277 17.9208 8.83263 18.1582 8.9898 18.4039C9.03171 18.4783 9.05328 18.5625 9.05234 18.6479C9.08584 19.3145 9.24295 19.9691 9.51566 20.5784C9.8522 21.362 10.2966 22.0946 10.8361 22.7552C10.8817 22.8115 10.9349 22.8617 10.9851 22.9142C11.094 22.8849 11.1133 22.7945 11.1519 22.7243C11.4995 22.0695 11.7435 21.3649 11.8755 20.6355C12.0014 19.9683 12.0684 19.2913 12.0755 18.6124C12.0755 18.5352 12.0816 18.4649 12.0855 18.3807C12.355 18.1491 12.6585 17.9568 12.9449 17.7444C13.0294 17.6923 13.1291 17.6705 13.2276 17.6827H14.1542H18.8939H19.28L19.7711 18.5205C19.7546 18.5805 19.7348 18.6396 19.7116 18.6973C19.3425 19.4904 19.1657 20.3336 19.0676 21.1946C18.9132 22.5359 18.9402 23.8795 19.0406 25.2238C19.2072 27.3274 19.5295 29.4157 20.005 31.4716C20.0243 31.5558 20.0406 31.6407 20.0568 31.7257C20.0588 31.755 20.0588 31.7844 20.0568 31.8137C19.9323 31.9611 19.7925 32.0949 19.6398 32.2129C19.5915 32.2496 19.5341 32.2723 19.4738 32.2785C19.3877 32.2855 19.3013 32.287 19.2151 32.2832H12.4229C12.3148 32.0191 12.2119 31.7702 12.1141 31.5365C12.2816 30.9959 12.4515 30.4824 12.6013 29.962C13.0114 28.5639 13.2799 27.1281 13.4028 25.6763C13.5318 24.0825 13.4893 22.4949 13.1295 20.9282C13.0855 20.7359 13.0291 20.5467 12.9751 20.3567C12.96 20.3281 12.9405 20.302 12.9171 20.2795C12.8237 20.3035 12.8446 20.3776 12.8361 20.4301C12.3447 23.4408 11.4651 26.3752 10.2191 29.1597C9.86951 29.9497 9.47982 30.7213 9.05157 31.4716C8.98439 31.5882 8.91258 31.7033 8.8369 31.8268C8.54153 31.7567 8.2519 31.6643 7.97051 31.5504C7.9458 31.4461 7.91337 31.3411 7.89329 31.2338C7.51183 28.6006 6.60374 26.1505 5.31496 23.8331C4.94404 23.1638 4.53487 22.5164 4.0895 21.8942C4.02078 21.7992 3.96904 21.6834 3.86325 21.6285C3.78603 21.6633 3.80379 21.7197 3.80379 21.7637C3.80842 23.9729 3.81151 26.1821 3.82464 28.3914C3.82597 28.6996 3.85648 29.007 3.91576 29.3095C4.03116 29.8436 4.29044 30.336 4.66555 30.7334C4.98995 31.0907 5.37211 31.3908 5.79603 31.6214L6.12885 31.8052Z" fill="#546992"/>
<path d="M55.5171 15.9583C55.9701 15.1608 56.2783 14.2895 56.4275 13.3846C56.5527 12.6667 56.6012 11.9375 56.5719 11.2093C56.5055 9.5105 56.0684 7.89895 55.4066 6.34454L55.2522 5.98624L55.9549 4.79399C56.2313 4.83569 56.4954 4.87893 56.7634 4.91677C58.0398 5.09591 59.3193 5.16 60.6027 5.01252C60.9579 4.97236 61.31 4.90364 61.6644 4.85808C62.764 4.71445 63.8559 4.74688 64.9331 5.03028C65.5453 5.18179 66.1279 5.4347 66.6566 5.77853C67.7948 6.53913 68.4466 7.59316 68.5554 8.96611C68.6612 10.2904 68.2311 11.4178 67.2798 12.3429C66.926 12.6904 66.4973 12.9522 66.0265 13.1081C65.957 13.1305 65.8906 13.1622 65.8034 13.1977C65.8472 13.23 65.8931 13.2594 65.9408 13.2857C66.3809 13.4834 66.6643 13.8263 66.8628 14.2571C67.0365 14.653 67.1517 15.0721 67.2049 15.5011C67.3161 16.2509 67.2821 17.003 67.2721 17.7559C67.2636 18.3737 67.2605 18.9914 67.2836 19.6092C67.3059 20.1773 67.4046 20.7399 67.5771 21.2817C67.68 21.625 67.8364 21.95 68.0404 22.2446C68.3697 22.7068 68.8609 23.0282 69.4163 23.1448C69.9717 23.2614 70.5506 23.1647 71.038 22.874C71.2061 22.771 71.3585 22.6443 71.4905 22.4979C71.8527 22.0948 71.9036 21.6037 71.6449 21.1257C71.5711 20.9975 71.4902 20.8735 71.4025 20.7543C71.1801 20.4412 71.0226 20.0867 70.9392 19.7119C70.8754 19.4213 70.8733 19.1206 70.933 18.8293C71.1376 17.8687 71.9322 17.2725 72.9638 17.2941C73.6017 17.308 74.099 17.5907 74.482 18.088C74.7715 18.4745 74.9647 18.9245 75.0457 19.4007C75.3731 21.1311 74.814 23.6801 72.1778 24.8137C70.5731 25.5033 68.9423 25.521 67.313 24.8817C66.3943 24.5283 65.6216 23.8753 65.12 23.0284C64.6285 22.1986 64.2803 21.292 64.0899 20.3466C63.9399 19.6089 63.8368 18.8626 63.781 18.1119C63.7154 17.3397 63.652 16.5621 63.5625 15.7899C63.516 15.4357 63.4419 15.0856 63.3409 14.7428C63.2762 14.5304 63.1855 14.3267 63.0706 14.1367C62.9695 13.9587 62.8322 13.804 62.6675 13.6826C62.5028 13.5611 62.3145 13.4756 62.1146 13.4317C62.0428 13.4146 61.9701 13.4015 61.8969 13.3923C61.7285 13.3722 61.5594 13.3552 61.3641 13.3344C61.3123 14.2324 61.2536 15.105 61.6088 15.9745L61.249 16.688C61.1571 16.6972 61.0729 16.7127 60.9895 16.7127C59.4838 16.7127 57.978 16.7127 56.4715 16.7127C56.3923 16.7195 56.3127 16.7073 56.2392 16.6771C56.1657 16.6469 56.1005 16.5995 56.0491 16.5389C55.8893 16.3451 55.707 16.1644 55.5171 15.9583ZM61.3139 6.04879C61.2312 6.18778 61.2675 6.32601 61.2706 6.45805C61.3015 7.88917 61.3347 9.32029 61.3702 10.7514C61.3702 10.8008 61.3756 10.8502 61.3741 10.8989C61.3693 10.9796 61.383 11.0604 61.4144 11.135C61.4457 11.2096 61.4937 11.2759 61.5548 11.329C61.6895 11.4544 61.838 11.5642 61.9972 11.6564C62.2845 11.8108 62.6026 11.8502 62.9285 11.8533C63.7177 11.8603 64.6165 11.3946 64.8428 10.275C64.9246 9.83759 64.9246 9.38882 64.8428 8.95144C64.7778 8.51014 64.6204 8.08752 64.3809 7.71122C64.1413 7.33492 63.8251 7.0134 63.4528 6.7677C62.8945 6.3991 62.2617 6.15836 61.5996 6.06269C61.5047 6.05239 61.4093 6.04775 61.3139 6.04879Z" fill="#546992"/>
<path d="M10.0276 9.35993C10.1998 9.14063 10.3534 8.94759 10.5025 8.75145C10.5328 8.70489 10.5744 8.66674 10.6234 8.64055C10.6724 8.61436 10.7272 8.60098 10.7828 8.60165C10.8322 8.60165 10.8816 8.59701 10.931 8.59547C12.3982 8.54399 13.8653 8.49251 15.3325 8.44103C15.4923 8.43486 15.6529 8.44103 15.8352 8.44103C16.0285 8.64346 16.204 8.8623 16.3595 9.09508C16.2869 9.40781 16.2143 9.719 16.1433 10.031C15.8821 11.1488 15.7288 12.2892 15.6854 13.4363C15.6525 14.1149 15.7075 14.7949 15.8491 15.4594C15.8846 15.6139 15.8776 15.739 15.758 15.8656C15.5634 16.0718 15.3912 16.2988 15.2074 16.515C15.1707 16.5514 15.1315 16.5852 15.09 16.6162C15.0035 16.532 14.924 16.4563 14.8452 16.3791C14.5988 16.1351 14.319 15.9271 14.0144 15.7614C13.7068 15.5889 13.3661 15.4837 13.0148 15.4526C12.6635 15.4216 12.3096 15.4655 11.9766 15.5814C11.3449 15.7904 10.7094 15.9876 10.07 16.1729C9.23933 16.414 8.38492 16.5641 7.52181 16.6208C6.81849 16.6687 6.11213 16.5979 5.43228 16.4115C4.67878 16.2026 3.98893 15.8099 3.42459 15.2687C2.22749 14.1451 1.40931 12.6771 1.08332 11.068C0.622528 8.96433 0.850477 6.76823 1.7335 4.80403C2.74507 2.51141 4.99985 0.694456 7.44305 0.156242C8.44689 -0.0653751 9.45074 -0.0383486 10.4546 0.156242C11.4468 0.348517 12.4437 0.519169 13.4414 0.679012C13.7471 0.717286 14.0554 0.73123 14.3634 0.720711C14.6114 0.713878 14.8539 0.645695 15.0692 0.522258C15.1665 0.470522 15.2607 0.414925 15.378 0.349289L15.9186 0.799473C15.9522 0.827403 15.9785 0.863072 15.9953 0.903419C16.0122 0.943767 16.0189 0.987588 16.0151 1.03113C16.0151 1.06819 16.0151 1.10835 16.0151 1.14232C16.0429 2.69648 16.0707 4.25115 16.0985 5.80633C16.0985 5.91675 16.0985 6.0264 16.0985 6.14532C15.8892 6.18239 15.7294 6.082 15.5425 6.03335C15.4854 5.91753 15.4251 5.79707 15.368 5.67583C14.8653 4.61099 14.2653 3.60792 13.4939 2.71372C13.1276 2.27881 12.7043 1.89542 12.2352 1.57398C11.8294 1.29055 11.3693 1.09416 10.8839 0.997152C10.502 0.917905 10.1073 0.922575 9.72736 1.01084C9.34738 1.0991 8.9911 1.26885 8.68318 1.50834C8.33223 1.78279 8.03531 2.12003 7.80752 2.50292C7.43979 3.11817 7.16623 3.78501 6.99595 4.48126C6.80353 5.23441 6.67235 6.00189 6.60368 6.7762C6.53474 7.51359 6.51745 8.25489 6.55195 8.99469C6.59751 10.0703 6.73959 11.1321 7.05927 12.1645C7.20051 12.6378 7.39615 13.0931 7.64227 13.5212C7.80395 13.8126 8.00739 14.0787 8.24612 14.3112C8.39024 14.4455 8.5452 14.5677 8.70944 14.6764C9.32719 15.0741 9.97737 15.1228 10.6445 14.8031C11.4229 14.4286 11.9495 13.8425 12.131 12.9815C12.2216 12.5301 12.1764 12.0621 12.0013 11.6363C11.7822 11.0582 11.4587 10.5253 11.0468 10.0642C10.7959 9.78695 10.5125 9.55221 10.148 9.43484C10.1054 9.414 10.0651 9.3889 10.0276 9.35993Z" fill="#546992"/>
<path d="M43.1374 15.9328L42.566 16.5506C42.2409 16.5892 38.4031 16.5985 37.7413 16.5629C37.5753 16.3645 37.3954 16.1467 37.2109 15.9336C37.1795 15.8959 37.1578 15.851 37.1477 15.803C37.1376 15.7549 37.1394 15.7051 37.1529 15.6579C37.2834 14.9676 37.424 14.278 37.5329 13.5838C37.7035 12.4982 37.817 11.4063 37.7908 10.3044C37.782 9.87221 37.7331 9.4418 37.6448 9.01868C37.5937 8.76388 37.4961 8.52069 37.3568 8.30132C37.2317 8.1021 37.0672 7.93052 36.8734 7.79708C36.3491 7.44265 35.7537 7.46427 35.2588 7.85886C34.999 8.07012 34.7962 8.34301 34.6688 8.65266C34.6305 8.75613 34.6122 8.86592 34.6148 8.97621C34.6154 9.581 34.6528 10.1852 34.7267 10.7854C34.9047 12.3557 35.2016 13.9102 35.6147 15.4355C35.6354 15.4932 35.642 15.5549 35.6341 15.6156C35.6261 15.6762 35.6039 15.7342 35.5692 15.7846C35.3947 16.0386 35.2302 16.2989 35.0696 16.5452C34.7669 16.5923 30.1152 16.6077 29.5145 16.5645C29.3191 16.2417 29.15 15.8881 28.9585 15.5344C28.9963 15.4263 29.028 15.3213 29.0689 15.2201C29.4733 14.238 29.757 13.2104 29.9137 12.1599C30.1338 10.621 30.0426 9.10825 29.5083 7.63569C29.3224 7.11203 29.0707 6.61411 28.7593 6.15387C28.7245 6.10367 28.6952 6.04962 28.6504 5.97626C28.8542 5.55002 29.0697 5.12686 29.2929 4.71837C29.5932 4.67436 34.2982 4.66432 34.7429 4.70602C34.8933 4.98226 35.0224 5.26958 35.129 5.56546C35.144 5.64885 35.134 5.73478 35.1005 5.81256C35.0287 6.04808 34.946 6.28051 34.8688 6.51525C34.8547 6.58231 34.8444 6.65011 34.8379 6.71834C34.9321 6.61564 34.9924 6.5639 35.0395 6.49749C35.2602 6.19997 35.5127 5.92733 35.7923 5.68438C36.7468 4.86586 37.8633 4.51915 39.1127 4.55081C39.7927 4.55815 40.4611 4.72757 41.0625 5.04501C41.8393 5.46508 42.3698 6.08592 42.5714 6.95926C42.6423 7.28545 42.6642 7.62041 42.6362 7.95306C42.5459 9.22099 42.4656 10.4905 42.4818 11.7623C42.4918 12.6758 42.5274 13.5877 42.671 14.4927C42.7482 14.9908 42.8563 15.4819 43.1374 15.9328Z" fill="#546992"/>
<path d="M33.381 29.1371C33.2983 29.046 33.2227 28.9673 33.1493 28.8846C31.9571 27.5063 31.6196 25.9403 32.242 24.2299C32.7663 22.789 33.8698 21.9743 35.3616 21.6917C36.3361 21.5079 37.2759 21.6662 38.1817 22.057L38.3971 22.1489C38.4844 22.077 38.5693 22.0091 38.6519 21.9388C39.1278 21.5243 39.6749 21.1994 40.2666 20.9798C40.909 20.7481 41.5638 20.6856 42.2287 20.8778C42.6116 20.9831 42.9646 21.1764 43.2596 21.4423C43.7622 21.9056 43.9375 22.5836 43.7059 23.199C43.5514 23.6137 43.2765 23.9187 42.8264 24.0222C42.6454 24.0663 42.4565 24.0665 42.2755 24.0229C42.0944 23.9792 41.9264 23.8929 41.7854 23.7712C41.6575 23.6723 41.5604 23.5388 41.5057 23.3865C41.451 23.2343 41.4409 23.0696 41.4766 22.9118C41.5153 22.7566 41.5636 22.6039 41.621 22.4546C41.7059 22.1929 41.621 22.0137 41.3515 21.9512C41.1961 21.9148 41.0347 21.9119 40.8781 21.9427C40.6859 21.9861 40.5012 22.0576 40.3299 22.155C40.0233 22.3321 39.7514 22.5634 39.5276 22.8376C39.5855 22.8855 39.6341 22.9334 39.6897 22.972C41.2341 24.0446 41.8248 25.531 41.6009 27.3688C41.4148 28.8939 40.282 30.3804 38.3492 30.778C37.3052 30.9927 36.3137 30.8097 35.3709 30.3271C35.2628 30.2715 35.1555 30.2143 35.0304 30.1479C34.9762 30.2316 34.9406 30.3259 34.9261 30.4245C34.9116 30.5231 34.9184 30.6236 34.9462 30.7193C34.9737 30.8082 35.0193 30.8904 35.0802 30.9607C35.1411 31.031 35.2159 31.0879 35.2999 31.1278C35.5198 31.2413 35.7609 31.3078 36.0079 31.3232C36.6121 31.364 37.2191 31.3256 37.8133 31.2089C38.5539 31.0622 39.3171 31.0743 40.0527 31.2444C40.16 31.2707 40.2673 31.3 40.3731 31.3332C41.7275 31.7587 42.2573 32.9741 42.2009 34.0289C42.1611 34.7247 41.8994 35.3893 41.4542 35.9254C40.9943 36.4953 40.4035 36.9456 39.7322 37.2381C39.0405 37.5365 38.3108 37.7376 37.5639 37.8358C36.6973 37.9715 35.817 37.9974 34.9439 37.913C34.3415 37.8592 33.7472 37.7369 33.1725 37.5486C32.8789 37.4526 32.601 37.3139 32.3478 37.137C32.1173 36.9797 31.9268 36.7707 31.7916 36.5267C31.6563 36.2827 31.5799 36.0104 31.5687 35.7316C31.5617 35.6204 31.5617 35.5092 31.5625 35.398C31.5625 34.9139 31.7887 34.5486 32.1841 34.2845C32.4061 34.1377 32.6554 34.037 32.9171 33.9884C33.1789 33.9399 33.4477 33.9445 33.7076 34.0019C33.8605 34.0277 34.0059 34.0869 34.1333 34.1753C34.2608 34.2636 34.3672 34.379 34.445 34.5131C34.9732 35.3911 35.7778 35.7972 36.7786 35.8544C37.285 35.8977 37.7944 35.8183 38.2635 35.6227C38.4556 35.5381 38.6371 35.4311 38.804 35.3038C39.2264 34.981 39.1415 34.3262 38.7546 34.0536C38.4978 33.8797 38.1974 33.7812 37.8875 33.7695C37.4309 33.7381 36.9724 33.7816 36.5299 33.8984C36.0663 34.0313 35.5839 34.0869 35.1022 34.0629C34.4381 34.0166 33.8142 33.8405 33.259 33.4637C32.6783 33.0699 32.3061 32.5371 32.2505 31.822C32.215 31.3648 32.2853 30.9056 32.4559 30.48C32.6156 30.0768 32.8516 29.7082 33.1509 29.3943L33.381 29.1371ZM38.0504 26.4916C38.0272 26.2909 37.9971 25.8978 37.9338 25.5094C37.8705 25.1067 37.7457 24.716 37.5639 24.3511C37.4641 24.1385 37.322 23.9485 37.1462 23.7928C37.0445 23.702 36.9193 23.6417 36.7849 23.6188C36.6505 23.5958 36.5124 23.6112 36.3863 23.6631C36.1533 23.7496 35.9556 23.9109 35.8242 24.1218C35.6704 24.3605 35.5601 24.6245 35.4983 24.9017C35.3351 25.612 35.3232 26.3487 35.4636 27.0638C35.5318 27.4904 35.6671 27.9034 35.8643 28.2877C35.9641 28.4866 36.1 28.6652 36.2651 28.8144C36.6875 29.1796 37.2133 29.131 37.5631 28.6939C37.704 28.5066 37.8087 28.2948 37.872 28.0692C38.0172 27.6198 38.0457 27.1534 38.0504 26.4909V26.4916Z" fill="#546992"/>
<path d="M80.7877 16.1722C80.6865 16.3776 80.6471 16.5583 80.5166 16.7127H75.1021C74.9855 16.5845 74.926 16.4232 74.8503 16.2595C75.0187 15.9822 75.2225 15.7112 75.0943 15.3143C74.9893 15.4031 74.9052 15.4687 74.8272 15.5406C74.3663 15.9709 73.8491 16.3366 73.2897 16.6278C72.7994 16.891 72.265 17.0622 71.7129 17.1328C70.774 17.2394 69.9539 16.973 69.2659 16.3305C69.0116 16.1011 68.817 15.8133 68.6987 15.4919C68.5805 15.1706 68.5422 14.8252 68.5871 14.4857C68.7122 13.275 69.3485 12.3715 70.3315 11.6943C70.7601 11.3978 71.2396 11.1978 71.7292 11.0256C72.2411 10.8457 72.7569 10.6796 73.2735 10.5044C73.6844 10.3731 74.0806 10.1997 74.4557 9.98699C74.7918 9.7985 75.0659 9.51659 75.2449 9.17542C75.3741 8.93552 75.4504 8.67073 75.4686 8.39887C75.4869 8.12701 75.4467 7.8544 75.3507 7.59939C75.2947 7.44936 75.2183 7.30775 75.1237 7.17855C74.8025 6.733 74.3113 6.5801 73.7422 6.7855C73.3168 6.93994 73.0867 7.24882 73.0558 7.70209C73.0279 7.96139 73.0742 8.22329 73.1894 8.45729C73.209 8.50251 73.2312 8.54659 73.2558 8.58933C73.7005 9.23334 73.1785 10.3105 72.3446 10.502C71.2782 10.7468 69.923 9.99703 69.8798 8.63566C69.8458 7.54765 70.2883 6.64419 71.1106 5.93301C71.6635 5.4558 72.3152 5.16855 73.021 5.00175C74.4681 4.65967 75.8889 4.73844 77.268 5.3168C78.7615 5.94459 79.6526 7.06967 79.9213 8.66732C79.9752 9.02135 79.9925 9.37999 79.973 9.73757C79.9429 10.5267 79.8881 11.3144 79.8371 12.1028C79.7915 12.8055 79.7522 13.5082 79.8047 14.2109C79.8279 14.4933 79.8797 14.7727 79.9591 15.0448C80.0686 15.4675 80.3233 15.8382 80.6788 16.0919C80.7004 16.1151 80.7313 16.1351 80.7877 16.1722ZM75.3299 11.1105C75.265 11.1445 75.2357 11.1499 75.2256 11.1669C74.9986 11.5298 74.655 11.7337 74.2696 11.8866C74.0743 11.9608 73.8828 12.0448 73.6959 12.1383C73.3078 12.3381 73.0133 12.6818 72.8751 13.0958C72.7631 13.4047 72.784 13.6997 72.9979 13.9661C73.3778 14.4371 74.3878 14.6757 74.9592 14.0008C75.1501 13.7741 75.2861 13.5064 75.3569 13.2186C75.5299 12.5236 75.4773 11.831 75.3268 11.1105H75.3299Z" fill="#546992"/>
<path d="M88.6858 15.7514L88.0634 16.7097C87.5646 16.7336 87.0596 16.7174 86.5576 16.7205C86.0557 16.7236 85.5461 16.7205 85.0403 16.7205C84.5345 16.7205 84.028 16.7205 83.5222 16.7205C83.0164 16.7205 82.5129 16.7243 81.9932 16.7205C81.8133 16.3823 81.6411 16.0564 81.4666 15.7321C81.4485 15.6933 81.4391 15.651 81.4391 15.6081C81.4391 15.5653 81.4485 15.523 81.4666 15.4842C81.5886 15.1089 81.7106 14.7336 81.8203 14.3553C82.5469 11.8223 82.7867 9.17458 82.5268 6.55232C82.3477 4.82725 81.9863 3.14389 81.323 1.53311C81.3091 1.49913 81.2983 1.46438 81.2759 1.39952L81.9423 0.0914341C82.9562 0.0821679 83.95 0.12155 84.9499 0.125411C85.9499 0.129271 86.9453 0.141625 87.9514 0.150119C88.1267 0.465943 88.2433 0.790263 88.3792 1.09759C88.2518 1.58253 88.1182 2.05665 88.0032 2.53463C87.7309 3.70028 87.5589 4.88708 87.4889 6.08206C87.434 6.88235 87.4195 7.6849 87.4457 8.48665C87.529 10.865 87.8804 13.197 88.6039 15.4734C88.6263 15.5467 88.6495 15.6317 88.6858 15.7514Z" fill="#546992"/>
<path d="M21.5951 10.4164C21.5632 10.6885 21.5577 10.9632 21.5789 11.2364C21.605 11.78 21.7306 12.3142 21.9496 12.8125C22.121 13.2251 22.3941 13.5877 22.7434 13.8665C23.4214 14.3839 24.1673 14.5128 24.975 14.2163C25.2324 14.123 25.4605 13.9631 25.636 13.753C25.7479 13.6285 25.8258 13.4772 25.8619 13.3137C25.898 13.1503 25.8912 12.9802 25.8422 12.8202C25.7833 12.6325 25.7458 12.4387 25.7302 12.2426C25.6978 11.4395 26.3541 10.8318 27.1773 10.9924C27.9379 11.1399 28.4205 11.6874 28.4498 12.4935C28.4615 12.8159 28.4055 13.1371 28.2854 13.4364C27.6066 15.1506 26.3734 16.2271 24.5565 16.5753C22.7395 16.9236 20.4716 16.2912 19.0307 14.9437C18.0994 14.075 17.5358 12.9986 17.2601 11.7631C16.7327 9.39013 17.735 6.85967 19.7133 5.52919C21.1735 4.54697 22.772 4.26281 24.4808 4.72303C25.2586 4.93844 25.9668 5.35282 26.5356 5.92533C27.3526 6.72145 27.9062 7.66584 28.1247 8.79323C28.1584 8.99995 28.1731 9.2093 28.1688 9.4187C28.1646 9.52916 28.1454 9.63853 28.1116 9.74379C28.0647 9.92528 27.9584 10.0859 27.8097 10.1999C27.6609 10.314 27.4782 10.3749 27.2908 10.3731C26.6491 10.3731 26.0074 10.3847 25.365 10.3893L22.1071 10.4063C21.9473 10.4032 21.7928 10.411 21.5951 10.4164ZM24.209 9.46503C24.2235 9.41448 24.2338 9.36283 24.2399 9.31059C24.2713 8.73119 24.223 8.15022 24.0962 7.58398C24.0385 7.31851 23.9425 7.06282 23.8113 6.82492C23.713 6.63867 23.573 6.47771 23.4021 6.35466C22.9241 6.0288 22.321 6.04115 21.9781 6.64886C21.866 6.85409 21.7806 7.07286 21.7241 7.29982C21.5442 7.98707 21.531 8.68975 21.5836 9.39322C21.5836 9.41329 21.6106 9.43182 21.6422 9.47429C22.4245 9.48047 23.2245 9.48742 24.0244 9.49128C24.0866 9.48756 24.1483 9.47878 24.209 9.46503Z" fill="#546992"/>
<path d="M48.2156 10.4457C48.2 10.5041 48.1886 10.5634 48.1816 10.6233C48.1465 11.2909 48.245 11.9587 48.4711 12.5878C48.6262 13.0465 48.8966 13.4576 49.2565 13.7816C49.892 14.3314 50.6209 14.4966 51.4309 14.275C51.6824 14.2065 51.914 14.0792 52.1066 13.9036C52.4456 13.5947 52.59 13.2264 52.4386 12.7716C52.3348 12.4927 52.3128 12.1899 52.3753 11.899C52.5251 11.272 53.0579 10.8952 53.6973 10.9809C54.5243 11.089 55.0401 11.672 55.0594 12.5129C55.0667 12.8719 54.9964 13.2283 54.8533 13.5577C54.1475 15.2287 52.912 16.2649 51.1167 16.5862C49.1669 16.936 46.6318 16.1916 45.1708 14.4526C44.3894 13.5333 43.9048 12.3988 43.7809 11.1986C43.5577 9.12994 44.2295 7.38093 45.7554 5.97478C46.6434 5.15704 47.7105 4.70839 48.9105 4.56014C49.7331 4.44927 50.5702 4.53312 51.3545 4.80492C52.161 5.09182 52.8794 5.58296 53.4394 6.23038C54.0733 6.929 54.5146 7.78057 54.7197 8.70137C54.7867 8.99095 54.8001 9.29036 54.7591 9.58475C54.712 9.89363 54.5668 10.1407 54.2764 10.2867C54.1411 10.3482 53.9933 10.377 53.8448 10.3708C53.2649 10.3762 52.6865 10.3832 52.1051 10.3863C50.9939 10.3932 49.8835 10.3963 48.7723 10.4048C48.5939 10.4048 48.4086 10.384 48.2156 10.4457ZM50.8317 9.45502C50.8743 9.01805 50.8671 8.57764 50.8101 8.14231C50.7744 7.74923 50.6758 7.36443 50.5182 7.00256C50.3924 6.72998 50.231 6.48211 49.9676 6.32304C49.4155 5.99022 48.882 6.13694 48.6016 6.64118C48.4825 6.85657 48.3919 7.08655 48.3322 7.32534C48.176 7.99943 48.1283 8.6941 48.1908 9.38321C48.1908 9.40406 48.2148 9.42414 48.2279 9.44422C48.536 9.49595 50.502 9.50831 50.8317 9.45502Z" fill="#546992"/>
<path d="M31.3677 31.87C31.2943 32.0407 31.2356 32.1789 31.1723 32.3217C31.1013 32.3367 31.0293 32.3465 30.9569 32.3511C29.4758 32.3511 27.9948 32.3511 26.5137 32.3511C26.4774 32.3511 26.4404 32.3434 26.3879 32.3379C26.2867 32.2391 26.2404 32.0986 26.1686 31.9519C26.2991 31.7109 26.4867 31.4793 26.3963 31.1797C26.2913 31.1279 26.2543 31.2136 26.2064 31.2569C25.7507 31.6932 25.2297 32.0557 24.662 32.331C24.1215 32.5905 23.557 32.7549 22.9493 32.7233C22.6089 32.712 22.2742 32.632 21.9654 32.4881C21.6567 32.3443 21.3801 32.1396 21.1524 31.8862C20.6598 31.3457 20.5648 30.6994 20.7254 30.0168C20.9347 29.1233 21.4536 28.4353 22.2142 27.9319C22.5567 27.711 22.9246 27.5324 23.3099 27.3998C23.7385 27.2454 24.174 27.1072 24.6041 26.9558C24.8829 26.8577 25.1647 26.7643 25.4327 26.64C25.6581 26.5402 25.8711 26.4145 26.0674 26.2655C26.365 26.0294 26.5745 25.7 26.6621 25.3303C26.7496 24.9606 26.7102 24.5722 26.55 24.2277C26.4064 23.9265 26.1994 23.6871 25.8643 23.5976C25.4589 23.4864 25.1099 23.5976 24.8118 23.8848C24.7058 23.9887 24.6364 24.1242 24.6141 24.2709C24.5483 24.5755 24.5921 24.8935 24.7377 25.169C24.8454 25.3358 24.9045 25.5294 24.9083 25.728C24.8954 25.9697 24.814 26.2028 24.6737 26.4C24.5335 26.5973 24.3401 26.7507 24.1161 26.8423C23.8726 26.9355 23.6088 26.9621 23.3516 26.9195C22.3007 26.7489 21.6443 25.8485 21.8181 24.8006C21.9725 23.8478 22.4605 23.1018 23.2852 22.5906C23.7379 22.3118 24.2382 22.1189 24.7609 22.0215C25.8998 21.7984 27.0218 21.8571 28.1098 22.2779C28.4088 22.3927 28.6953 22.5378 28.9646 22.7111C29.9252 23.3288 30.4511 24.2323 30.6194 25.3535C30.6706 25.7081 30.6841 26.0671 30.6596 26.4245C30.6094 27.2377 30.5546 28.05 30.5052 28.8631C30.4616 29.3799 30.4715 29.8997 30.5345 30.4144C30.5727 30.7087 30.6627 30.9939 30.8001 31.2569C30.933 31.507 31.1286 31.7182 31.3677 31.87ZM26.5801 27.4191C26.1068 27.9195 26.1068 27.9187 25.4605 28.1913C25.3351 28.2418 25.2129 28.2999 25.0944 28.365C24.7802 28.544 24.5436 28.8332 24.4304 29.1766C24.3765 29.3023 24.3587 29.4406 24.3788 29.5758C24.399 29.7111 24.4564 29.8381 24.5446 29.9426C24.8805 30.3488 25.7369 30.538 26.2272 30.0013C26.4179 29.7897 26.5508 29.5325 26.6133 29.2546C26.7562 28.6569 26.7183 28.0608 26.5801 27.4191Z" fill="#546992"/>
<path d="M58.6445 28.7759C59.0684 28.9766 59.4846 29.1542 59.897 29.3813C59.8669 29.4678 59.8491 29.5357 59.8198 29.6021C59.6469 29.9581 59.4142 30.2817 59.1318 30.5589C58.3517 31.3414 57.3655 31.8864 56.2878 32.1303C55.3366 32.3644 54.3408 32.3471 53.3983 32.0801C52.4141 31.8114 51.5424 31.2334 50.9118 30.4314C50.2044 29.564 49.7828 28.4988 49.7049 27.3821C49.5505 25.2972 50.3512 23.6555 52.074 22.4764C52.7689 22.0015 53.555 21.7606 54.3905 21.671C55.5755 21.5441 56.772 21.7604 57.8376 22.2941C58.3744 22.5484 58.8489 22.9175 59.2275 23.3752C59.7124 23.9457 59.9661 24.6771 59.9387 25.4254C59.9243 25.8464 59.8065 26.2574 59.5958 26.6222C59.1626 27.379 58.3603 27.6384 57.6414 27.5334C57.3212 27.4816 57.0282 27.3222 56.8106 27.0817C56.5697 26.8311 56.4055 26.5168 56.3372 26.1759C56.2984 26.0067 56.3027 25.8304 56.3496 25.6632C56.3596 25.6277 56.3735 25.5929 56.3828 25.5574C56.5372 24.9752 56.2994 24.6061 55.7025 24.4802C55.4222 24.4281 55.1331 24.4524 54.8654 24.5505C54.3895 24.7025 53.9889 25.0292 53.7442 25.4647C53.5569 25.7785 53.4336 26.1263 53.3813 26.488C53.3291 26.8496 53.349 27.2181 53.44 27.572C53.5943 28.2388 53.9586 28.8384 54.4793 29.2824C55.1743 29.884 55.9836 30.0415 56.8669 29.8809C57.0846 29.8371 57.2974 29.7722 57.5024 29.6871C57.9619 29.5064 58.1812 29.3241 58.6445 28.7759Z" fill="#546992"/>
<path d="M43.8964 22.9674L44.4083 21.9636C44.4361 21.9474 44.4462 21.9404 44.457 21.935C44.4676 21.9285 44.4794 21.9243 44.4917 21.9227C44.5774 21.9188 44.6639 21.9142 44.7504 21.9142L48.8198 21.9188C48.8526 21.925 48.8845 21.9352 48.9148 21.9489C49.0028 22.1443 49.097 22.3574 49.1936 22.5667C49.2445 22.6786 49.2113 22.7806 49.1689 22.8864C49.0156 23.2633 48.8957 23.6529 48.8106 24.0508C48.6997 24.5567 48.6318 25.071 48.6075 25.5882C48.5218 27.4955 48.8391 29.3457 49.3866 31.1642C49.4252 31.2939 49.4638 31.4221 49.5125 31.5704L49.0144 32.3372H44.4732C44.2809 32.1055 44.1643 31.8167 44.0338 31.5433C43.9967 31.4661 44.0269 31.3511 44.0493 31.2592C44.1442 30.8731 44.2601 30.4986 44.345 30.114C44.6468 28.7257 44.7196 27.2974 44.5604 25.8855C44.4595 24.8893 44.2365 23.9092 43.8964 22.9674Z" fill="#546992"/>
<path d="M89 29.4847C88.9753 29.5349 88.9676 29.575 88.9421 29.5967C88.9039 29.6275 88.8609 29.6518 88.8147 29.6685C88.4286 29.8229 88.0425 29.992 87.6441 30.1233C85.9298 30.6932 84.7623 31.8221 84.1113 33.5047C83.9105 34.0213 83.6773 34.5247 83.458 35.0344C83.4435 35.0682 83.4254 35.1003 83.404 35.1301C83.3916 35.1437 83.3764 35.1543 83.3595 35.1614C83.3426 35.1684 83.3244 35.1717 83.3061 35.171C83.2877 35.1702 83.2698 35.1655 83.2535 35.1571C83.2372 35.1487 83.223 35.1369 83.2117 35.1224C83.1768 35.057 83.1456 34.9898 83.1183 34.9209C82.8866 34.3757 82.672 33.8244 82.4233 33.2869C81.7283 31.7526 80.6056 30.6661 78.9848 30.1387C78.5377 29.9936 78.1207 29.7804 77.689 29.5982C77.6541 29.5865 77.6245 29.5626 77.6056 29.531C77.5927 29.4871 77.5946 29.4402 77.611 29.3974C77.6302 29.3658 77.6605 29.3424 77.696 29.3318C77.9862 29.1963 78.2867 29.0842 78.5948 28.9967C79.7455 28.7282 80.7763 28.0896 81.5291 27.1789C81.9216 26.702 82.2345 26.1649 82.4557 25.5882C82.6696 25.0477 82.9051 24.5203 83.1322 23.9875C83.1466 23.9537 83.164 23.9211 83.1839 23.8902C83.1945 23.8752 83.2086 23.863 83.2249 23.8546C83.2413 23.8461 83.2594 23.8417 83.2777 23.8417C83.2961 23.8417 83.3142 23.8461 83.3305 23.8546C83.3468 23.863 83.3609 23.8752 83.3715 23.8902C83.4047 23.9418 83.4337 23.996 83.458 24.0524C83.6997 24.606 83.9437 25.1589 84.18 25.7149C84.875 27.3473 86.0657 28.4291 87.7645 28.9395C88.1389 29.0623 88.5056 29.2075 88.8626 29.3743C88.9137 29.4038 88.9601 29.4411 89 29.4847Z" fill="#546992"/>
<path d="M75.9621 22.2648C76.0124 22.3288 76.0576 22.3967 76.0972 22.4679C76.2517 22.8045 76.4007 23.142 76.5428 23.4825C76.9922 24.5636 77.7675 25.2809 78.8879 25.623C79.1667 25.6985 79.4339 25.8121 79.6817 25.9605C79.691 26.0662 79.6207 26.0879 79.5713 26.1087C79.3443 26.2037 79.118 26.3033 78.8848 26.3782C77.7157 26.755 76.9181 27.5118 76.491 28.6654C76.376 28.9743 76.2293 29.2762 76.0941 29.5805C76.0647 29.6284 76.0311 29.6736 75.9938 29.7156C75.9485 29.6689 75.9088 29.6171 75.8756 29.5612C75.7312 29.2345 75.5914 28.9056 75.4525 28.5766C75.0084 27.521 74.2695 26.7767 73.1699 26.4145C72.8591 26.311 72.558 26.1803 72.2703 26.0238C72.2641 26.0081 72.2614 25.9912 72.2625 25.9743C72.2636 25.9575 72.2684 25.9411 72.2766 25.9263C72.2848 25.9115 72.2962 25.8988 72.3099 25.8889C72.3236 25.8791 72.3394 25.8724 72.356 25.8693C72.5876 25.7836 72.8193 25.6933 73.051 25.6261C73.6703 25.4513 74.2308 25.1119 74.6725 24.6439C74.9945 24.3019 75.2475 23.901 75.4177 23.4632C75.5505 23.1319 75.6941 22.8045 75.8355 22.4763C75.8671 22.4146 75.9088 22.3567 75.9621 22.2648Z" fill="#546992"/>
<path d="M74.4559 29.7797C74.527 29.8994 74.5687 29.9573 74.5972 30.0206C74.7077 30.2685 74.8142 30.5179 74.9216 30.7666C75.2629 31.5596 75.8381 32.0971 76.6621 32.3642C76.9093 32.429 77.1452 32.5311 77.3617 32.6669C77.3145 32.7103 77.2627 32.7483 77.2072 32.7804C77.0134 32.8577 76.8211 32.9349 76.6204 33.0051C76.2259 33.1337 75.8657 33.3501 75.567 33.6381C75.2684 33.9261 75.0389 34.2781 74.8961 34.6677C74.8019 34.9086 74.6953 35.1449 74.5872 35.3819C74.553 35.4433 74.514 35.5019 74.4706 35.5572C74.4227 35.4746 74.3888 35.4275 74.3656 35.375C74.2667 35.1495 74.1687 34.9233 74.0737 34.6955C73.7278 33.8661 73.1509 33.2816 72.2876 32.9928C72.0337 32.9179 71.7917 32.8074 71.5687 32.6646C71.6892 32.5303 71.8374 32.5025 71.9687 32.4499C72.0591 32.4137 72.1587 32.399 72.2529 32.3727C72.6451 32.2575 73.0063 32.0555 73.3098 31.7818C73.6134 31.508 73.8515 31.1695 74.0065 30.7913C74.1108 30.5542 74.2065 30.3133 74.3092 30.0755C74.3424 29.9944 74.3849 29.9203 74.4559 29.7797Z" fill="#546992"/>
<path d="M48.9188 17.6926C48.7485 17.9079 48.5513 18.1005 48.332 18.2656C47.8555 18.6476 47.5257 19.1825 47.3984 19.7799C47.359 20.0096 47.3358 20.2418 47.3289 20.4748C47.3081 20.7683 47.2973 21.0617 47.2795 21.3968C47.216 21.3705 47.1556 21.337 47.0996 21.2972C46.9158 21.115 46.7351 20.9281 46.559 20.7405C45.9359 20.088 45.1822 19.7598 44.2742 19.8138C44.0178 19.8291 43.7606 19.8112 43.5089 19.7605C43.5351 19.7028 43.5681 19.6484 43.607 19.5984C43.7037 19.5031 43.8069 19.4146 43.9159 19.3335C44.7043 18.7652 45.088 17.9907 45.1104 17.0262C45.1174 16.7174 45.129 16.4131 45.1382 16.1235C45.1511 16.1118 45.1664 16.1031 45.183 16.0978C45.1996 16.0925 45.2172 16.0909 45.2345 16.093C45.2518 16.0951 45.2684 16.101 45.2832 16.1101C45.2981 16.1192 45.3108 16.1315 45.3205 16.1459C45.5205 16.3475 45.7251 16.5444 45.9205 16.7506C46.556 17.4201 47.3297 17.7197 48.2517 17.6424C48.4116 17.6328 48.572 17.6328 48.732 17.6424C48.7956 17.6536 48.8582 17.6704 48.9188 17.6926Z" fill="#546992"/>
</svg>
