<svg width="134" height="134" viewBox="0 0 134 134" fill="none" xmlns="http://www.w3.org/2000/svg">
<path opacity="0.3" d="M67 133C103.451 133 133 103.451 133 67C133 30.5492 103.451 1 67 1C30.5492 1 1 30.5492 1 67C1 103.451 30.5492 133 67 133Z" stroke="url(#paint0_linear_245_315)" stroke-width="2"/>
<path d="M66.25 107.526C88.355 107.526 106.276 89.605 106.276 67.5C106.276 45.395 88.355 27.474 66.25 27.474C44.145 27.474 26.224 45.395 26.224 67.5C26.224 89.605 44.145 107.526 66.25 107.526ZM112.5 67.5C112.5 93.043 91.793 113.75 66.25 113.75C40.707 113.75 20 93.043 20 67.5C20 41.957 40.707 21.25 66.25 21.25C91.793 21.25 112.5 41.957 112.5 67.5Z" stroke="url(#paint1_linear_245_315)" stroke-width="2.5"/>
<path fill-rule="evenodd" clip-rule="evenodd" d="M63.342 24.362C63.342 21.953 65.258 20 67.622 20C93.098 20 113.75 41.049 113.75 67.015C113.75 92.981 93.098 114.031 67.622 114.031C65.258 114.031 63.342 112.078 63.342 109.668C63.342 107.259 65.258 105.306 67.622 105.306C88.37 105.306 105.19 88.163 105.19 67.015C105.19 45.868 88.37 28.724 67.622 28.724C65.258 28.724 63.342 26.771 63.342 24.362Z" fill="url(#paint2_linear_245_315)"/>
<defs>
<linearGradient id="paint0_linear_245_315" x1="29.8645" y1="16.8835" x2="120.937" y2="124.592" gradientUnits="userSpaceOnUse">
<stop stop-color="#7479FF"/>
<stop offset="1" stop-color="#7479FF" stop-opacity="0"/>
</linearGradient>
<linearGradient id="paint1_linear_245_315" x1="66.25" y1="20" x2="66.25" y2="115" gradientUnits="userSpaceOnUse">
<stop stop-color="#0FEEF1"/>
<stop offset="1" stop-color="#7479FF"/>
</linearGradient>
<linearGradient id="paint2_linear_245_315" x1="67.622" y1="24.362" x2="63.67" y2="111.116" gradientUnits="userSpaceOnUse">
<stop stop-color="#16E7F2"/>
<stop offset="1" stop-color="#717DFF" stop-opacity="0"/>
</linearGradient>
</defs>
</svg>
