<svg width="22" height="22" viewBox="0 0 22 22" fill="none" xmlns="http://www.w3.org/2000/svg">
<path fill-rule="evenodd" clip-rule="evenodd" d="M20.2858 9.00538C20.6006 9.05878 20.8999 9.21335 21.1809 9.46769C21.462 9.72063 21.6025 10.034 21.6025 10.4036V11.7216C21.6025 12.0785 21.462 12.3666 21.1809 12.5858C20.8999 12.805 20.6006 12.9568 20.2858 13.0383L18.577 13.45C18.5113 13.6481 18.4391 13.844 18.3606 14.0374C18.2847 14.2236 18.1989 14.4056 18.1035 14.5826L19.0084 16.1058C19.1869 16.3798 19.2965 16.696 19.3387 17.0529C19.3611 17.2224 19.3429 17.3948 19.2855 17.5558C19.228 17.7169 19.1331 17.8619 19.0084 17.9789L18.0824 18.905C17.9607 19.0309 17.8127 19.1285 17.649 19.1906C17.4853 19.2528 17.3099 19.2781 17.1353 19.2647C16.7923 19.2527 16.4587 19.1499 16.1685 18.9668L14.6859 18.0197C14.4966 18.1143 14.3044 18.2033 14.1098 18.2867C13.9077 18.373 13.7013 18.449 13.4915 18.5143L13.1219 20.223C13.0551 20.5593 12.8943 20.8696 12.6582 21.1181C12.4053 21.3992 12.0919 21.5397 11.7223 21.5397H10.4042C10.2369 21.5438 10.0711 21.5077 9.92068 21.4343C9.77028 21.361 9.63972 21.2525 9.53999 21.1181C9.32924 20.8541 9.1752 20.5493 9.08751 20.223L8.67437 18.5326C8.45151 18.4631 8.23164 18.3843 8.01532 18.2965C7.79761 18.2079 7.58466 18.108 7.37734 17.9972L5.85407 18.9654C5.56884 19.1514 5.23754 19.2546 4.89711 19.2633C4.7238 19.2787 4.54927 19.2542 4.38683 19.1919C4.2244 19.1296 4.07834 19.0309 3.95982 18.9036L3.0127 17.9761C2.89376 17.856 2.80403 17.7102 2.75042 17.5498C2.69682 17.3895 2.68078 17.219 2.70354 17.0515C2.7457 16.6946 2.84828 16.3784 3.0127 16.1044L3.9809 14.4983C3.89761 14.3321 3.81843 14.1639 3.74342 13.9938C3.666 13.8167 3.60074 13.6346 3.54809 13.4486L1.84073 13.0369C1.51393 12.9494 1.20871 12.7953 0.944195 12.5844C0.809813 12.4847 0.701369 12.3541 0.628003 12.2037C0.554636 12.0533 0.518495 11.8875 0.522627 11.7202V10.4021C0.522627 10.0326 0.663149 9.71922 0.944195 9.46629C1.22524 9.21195 1.52456 9.05878 1.84073 9.00257L3.52701 8.6316C3.58363 8.43539 3.65262 8.24296 3.73358 8.05547C3.81649 7.86437 3.89799 7.67888 3.9809 7.50042L3.0127 5.89429C2.8428 5.60446 2.73736 5.28143 2.70354 4.94719C2.68056 4.77946 2.69649 4.60869 2.7501 4.44811C2.80371 4.28753 2.89356 4.14144 3.0127 4.02116L3.95982 3.09514C4.07834 2.96777 4.2244 2.86915 4.38683 2.8068C4.54927 2.74446 4.7238 2.72004 4.89711 2.73541C5.27371 2.75508 5.5927 2.85485 5.85267 3.03331L7.37734 4.00149C7.78521 3.78401 8.21235 3.60478 8.65329 3.46611L9.0861 1.77707C9.16043 1.44994 9.30793 1.14391 9.51751 0.881962C9.62068 0.746097 9.75489 0.636922 9.90892 0.563579C10.0629 0.490235 10.2323 0.454856 10.4028 0.460404H11.7209C12.0905 0.460404 12.3996 0.600923 12.647 0.881962C12.8943 1.163 13.0517 1.45528 13.1205 1.7574L13.4915 3.48578C13.9008 3.62239 14.2999 3.78767 14.6859 3.98041L16.1671 3.03331C16.4573 2.85022 16.7909 2.74742 17.1339 2.73541C17.3085 2.722 17.4839 2.74729 17.6476 2.80947C17.8113 2.87165 17.9593 2.9692 18.081 3.09514L19.0084 4.02257C19.1326 4.13959 19.2272 4.28446 19.2844 4.44522C19.3415 4.60599 19.3597 4.77804 19.3373 4.94719C19.3024 5.28428 19.1893 5.60858 19.007 5.89429L18.1021 7.41751C18.1976 7.61003 18.2904 7.80535 18.3803 8.00489C18.4688 8.20302 18.5405 8.41239 18.5953 8.6316L20.283 9.00257L20.2858 9.00538ZM20.2858 11.619L20.3055 10.4443C20.2214 10.3755 20.123 10.3265 20.0174 10.301L17.5681 9.74451L17.3418 9.02505C17.2995 8.8563 17.2445 8.69096 17.1774 8.53043C17.1035 8.35502 17.021 8.18338 16.9301 8.01613L16.5999 7.35709L17.8969 5.1959C17.9355 5.14578 17.9667 5.09042 17.9896 5.0315C18.0066 4.99223 18.017 4.95047 18.0206 4.90784L17.1563 4.06472C17.0613 4.06537 16.9685 4.09369 16.8893 4.14623L14.7675 5.50505L14.0887 5.15375C13.9257 5.07228 13.7612 4.99358 13.5955 4.91768C13.4304 4.8423 13.2581 4.78392 13.0812 4.74343L12.3603 4.49612L11.8249 2.00612C11.8115 1.95199 11.7907 1.89998 11.7631 1.85154L11.7209 1.77988H10.5068C10.4735 1.81618 10.446 1.85742 10.4253 1.90213C10.3946 1.96755 10.3737 2.03716 10.3635 2.1087L9.76623 4.49752L9.06643 4.72235C8.69639 4.84006 8.33796 4.99152 7.99564 5.17483L7.31692 5.52612L5.11492 4.12515L5.01093 4.07456C4.971 4.05432 4.92968 4.03694 4.88727 4.02257L4.02306 4.88676C4.02306 4.92892 4.0343 4.97669 4.05397 5.0315C4.07975 5.09577 4.11076 5.1578 4.14672 5.21698L5.4845 7.44L5.15567 8.07796C5.07995 8.24077 5.0078 8.40521 4.93927 8.57118C4.87853 8.71918 4.82691 8.87075 4.78469 9.02505L4.55985 9.74451L2.06838 10.301C2.02149 10.3171 1.9763 10.3378 1.93348 10.3628C1.9054 10.3824 1.87397 10.3967 1.84073 10.405V11.6176C1.86884 11.6457 1.91099 11.6696 1.96439 11.6907C2.03152 11.714 2.10068 11.7309 2.17096 11.7413L4.57953 12.3596L4.80436 13.0594C4.89737 13.3599 5.02221 13.6496 5.17675 13.9236L5.4859 14.5615L4.14672 16.8056C4.10815 16.8557 4.07692 16.9111 4.05397 16.97C4.03515 17.016 4.02469 17.0651 4.02306 17.1148L4.88727 17.9579C4.92943 17.9579 4.9744 17.948 5.02218 17.927C5.06877 17.9072 5.11345 17.8832 5.15567 17.8553L7.31692 16.4754L7.99564 16.8267C8.33796 17.01 8.69639 17.1615 9.06643 17.2792L9.76623 17.504L10.3845 19.935C10.3986 20.0024 10.4155 20.0614 10.4351 20.1092C10.4517 20.1509 10.4761 20.189 10.5068 20.2216H11.7012C11.7678 20.1439 11.8172 20.0529 11.846 19.9546L12.38 17.5054L13.1008 17.2581C13.4399 17.1455 13.7701 17.0078 14.0887 16.8464L14.7689 16.4965L16.9301 17.8764L17.0327 17.927C17.0727 17.947 17.114 17.9644 17.1563 17.9789L18.0206 17.1148C18.0189 17.0651 18.0085 17.016 17.9896 16.97C17.9643 16.9055 17.9333 16.8435 17.8969 16.7845L16.5999 14.6444L16.9301 13.9854C17.0116 13.835 17.0847 13.6805 17.1465 13.5217C17.2083 13.3643 17.266 13.2027 17.3208 13.0383L17.547 12.3596L19.9963 11.7413C20.0564 11.7305 20.1153 11.7135 20.172 11.6907C20.2137 11.6737 20.2519 11.6489 20.2844 11.6176L20.2858 11.619ZM11.0633 7.04795C12.1607 7.04795 13.098 7.43157 13.8737 8.20021C14.2494 8.56187 14.5465 8.99709 14.7464 9.4787C14.9464 9.96031 15.0449 10.478 15.0358 10.9994C15.0449 11.5207 14.9464 12.0384 14.7464 12.52C14.5465 13.0016 14.2494 13.4368 13.8737 13.7985C13.508 14.1713 13.0703 14.4657 12.5871 14.6638C12.1039 14.8619 11.5854 14.9595 11.0633 14.9508C10.5445 14.9581 10.0296 14.8597 9.55002 14.6616C9.07047 14.4635 8.63627 14.1698 8.27388 13.7985C7.89795 13.437 7.6006 13.0018 7.40041 12.5202C7.20021 12.0386 7.10147 11.5208 7.11035 10.9994C7.10147 10.4779 7.20021 9.96015 7.40041 9.47853C7.6006 8.99692 7.89795 8.56175 8.27388 8.20021C8.63627 7.82888 9.07047 7.53522 9.55002 7.33712C10.0296 7.13902 10.5445 7.04063 11.0633 7.04795ZM11.0633 13.6341C11.7912 13.6341 12.4123 13.3769 12.9266 12.8612C13.4409 12.3469 13.6981 11.7272 13.6981 10.9994C13.6981 10.2715 13.4409 9.65037 12.9252 9.13607C12.684 8.88714 12.3943 8.69027 12.0741 8.55759C11.7539 8.42491 11.4099 8.35923 11.0633 8.36461C10.3354 8.36461 9.71424 8.62177 9.19993 9.13747C8.95086 9.37858 8.7539 9.66821 8.6212 9.98845C8.48851 10.3087 8.42291 10.6528 8.42845 10.9994C8.42845 11.7272 8.68561 12.3483 9.20133 12.8626C9.71565 13.3769 10.3354 13.6341 11.0633 13.6341Z" fill="white"/>
<path fill-rule="evenodd" clip-rule="evenodd" d="M16.1671 3.0333C16.4573 2.85021 16.7909 2.74741 17.1339 2.7354C17.3085 2.72199 17.4839 2.74728 17.6476 2.80946C17.8113 2.87164 17.9593 2.96918 18.081 3.09513L19.0084 4.02255C19.1326 4.13958 19.2272 4.28445 19.2844 4.44521C19.3415 4.60597 19.3597 4.77802 19.3373 4.94717C19.3024 5.28426 19.1893 5.60856 19.007 5.89427L18.1021 7.4175C18.1976 7.61001 18.2904 7.80533 18.3803 8.00487C18.4688 8.203 18.5405 8.41238 18.5953 8.63159L20.283 9.00256L20.2858 9.00537C20.6006 9.05877 20.8999 9.21334 21.1809 9.46768C21.462 9.72061 21.6025 10.034 21.6025 10.4035V11.7216C21.6025 12.0785 21.462 12.3666 21.1809 12.5858C20.8999 12.805 20.6006 12.9568 20.2858 13.0383L18.577 13.45C18.5113 13.6481 18.4391 13.844 18.3606 14.0374C18.2847 14.2236 18.1989 14.4056 18.1035 14.5826L19.0084 16.1058C19.1869 16.3798 19.2965 16.696 19.3387 17.0529C19.3611 17.2224 19.3429 17.3948 19.2855 17.5558C19.228 17.7169 19.1331 17.8619 19.0084 17.9789L18.0824 18.905C17.9607 19.0309 17.8127 19.1284 17.649 19.1906C17.4853 19.2528 17.3099 19.2781 17.1353 19.2647C16.7923 19.2527 16.4587 19.1499 16.1685 18.9668L14.6859 18.0197C14.4966 18.1143 14.3044 18.2033 14.1098 18.2867C13.9077 18.373 13.7013 18.449 13.4915 18.5143L13.1219 20.223C13.0551 20.5592 12.8943 20.8696 12.6582 21.1181C12.4053 21.3992 12.0919 21.5397 11.7223 21.5397H10.4042C10.2369 21.5438 10.0711 21.5077 9.92068 21.4343C9.77028 21.361 9.63972 21.2525 9.53999 21.1181C9.32924 20.854 9.1752 20.5493 9.08751 20.223L8.67437 18.5326C8.45151 18.463 8.23164 18.3843 8.01532 18.2965C7.79761 18.2079 7.58466 18.108 7.37734 17.9972L5.85407 18.9654C5.56884 19.1514 5.23754 19.2545 4.89711 19.2633C4.7238 19.2786 4.54927 19.2542 4.38683 19.1919C4.2244 19.1295 4.07835 19.0309 3.95982 18.9036L3.0127 17.9761C2.89376 17.856 2.80403 17.7101 2.75043 17.5498C2.69682 17.3895 2.68078 17.219 2.70355 17.0515C2.7457 16.6946 2.84828 16.3784 3.0127 16.1044L3.9809 14.4983C3.89762 14.3321 3.81843 14.1639 3.74342 13.9938C3.666 13.8167 3.60074 13.6346 3.54809 13.4486L1.84073 13.0369C1.51393 12.9494 1.20871 12.7953 0.944196 12.5844C0.809814 12.4847 0.70137 12.3541 0.628004 12.2037C0.554637 12.0533 0.518496 11.8875 0.522628 11.7202V10.4021C0.522628 10.0326 0.66315 9.71921 0.944196 9.46627C1.22524 9.21193 1.52456 9.05877 1.84073 9.00256L3.52701 8.63159C3.58363 8.43537 3.65262 8.24295 3.73358 8.05546C3.81649 7.86435 3.89799 7.67887 3.9809 7.50041L3.0127 5.89427C2.8428 5.60445 2.73736 5.28141 2.70355 4.94717C2.68056 4.77945 2.69649 4.60868 2.7501 4.4481C2.80371 4.28752 2.89356 4.14143 3.0127 4.02115L3.95982 3.09513C4.07835 2.96775 4.2244 2.86913 4.38683 2.80679C4.54927 2.74445 4.7238 2.72003 4.89711 2.7354C5.27371 2.75507 5.5927 2.85484 5.85267 3.0333L7.37734 4.00148C7.78521 3.78399 8.21235 3.60477 8.65329 3.4661L9.0861 1.77706C9.16043 1.44993 9.30793 1.14389 9.51751 0.881947C9.62068 0.746082 9.75489 0.636908 9.90892 0.563564C10.0629 0.490221 10.2323 0.454842 10.4028 0.46039H11.7209C12.0905 0.46039 12.3996 0.600909 12.647 0.881947C12.8943 1.16299 13.0517 1.45527 13.1205 1.75738L13.4915 3.48577C13.9008 3.62237 14.2999 3.78766 14.6859 3.9804L16.1671 3.0333ZM14.678 3.83536L16.0992 2.92653L16.0996 2.92632C16.408 2.73176 16.7624 2.62231 17.1268 2.60909C17.3191 2.59471 17.5122 2.62274 17.6925 2.69122C17.8733 2.75987 18.0367 2.8675 18.1712 3.00643C18.1714 3.0067 18.1717 3.00697 18.1719 3.00724L19.0966 3.93182C19.2347 4.06237 19.3398 4.22378 19.4035 4.40283C19.4672 4.58191 19.4876 4.77353 19.4629 4.96198C19.4258 5.31734 19.3066 5.6592 19.1148 5.96058L18.2459 7.42306C18.3314 7.5969 18.4146 7.77318 18.4956 7.9529L18.4958 7.95327C18.5771 8.13532 18.6446 8.32617 18.6982 8.5247L20.3463 8.88697L20.3474 8.88805C20.6748 8.95216 20.9818 9.11694 21.2656 9.37376C21.5727 9.65019 21.729 9.99746 21.729 10.4035V11.7216C21.729 12.1174 21.5705 12.4423 21.2587 12.6855C20.9655 12.9143 20.6507 13.0744 20.3175 13.1607L20.3165 13.161L18.6747 13.5566C18.6142 13.7346 18.5485 13.9107 18.4778 14.0849L18.4777 14.0851C18.4092 14.2533 18.3327 14.4182 18.2485 14.5791L19.1159 16.039C19.3051 16.3303 19.42 16.6644 19.4642 17.0372C19.4891 17.2263 19.4687 17.4186 19.4046 17.5983C19.3406 17.7776 19.235 17.9392 19.0965 18.0697L18.1734 18.9928C18.1731 18.9931 18.1729 18.9934 18.1726 18.9936C18.0381 19.1326 17.8747 19.2402 17.6939 19.3089C17.5136 19.3773 17.3205 19.4054 17.1282 19.391C16.7638 19.3778 16.4094 19.2683 16.101 19.0738L16.1007 19.0736L16.1004 19.0734L14.6781 18.1647C14.5073 18.2486 14.3345 18.3281 14.1596 18.4029L14.1595 18.403C13.9761 18.4813 13.7893 18.5513 13.5996 18.6127L13.246 20.2477C13.2459 20.248 13.2458 20.2484 13.2458 20.2487C13.1743 20.6074 13.0028 20.9386 12.7511 21.204C12.4748 21.5104 12.1279 21.6662 11.7223 21.6662H10.4057C10.2187 21.6705 10.0334 21.63 9.86523 21.548C9.69729 21.4661 9.55141 21.3451 9.43977 21.1953C9.21887 20.918 9.05738 20.5982 8.96536 20.2559L8.96499 20.2545L8.56839 18.6317C8.36555 18.5665 8.1652 18.4938 7.96776 18.4137L7.96763 18.4137C7.76872 18.3327 7.57372 18.2425 7.38325 18.1433L5.92317 19.0713C5.92295 19.0715 5.92274 19.0716 5.92253 19.0717C5.61891 19.2696 5.2665 19.3796 4.90428 19.3896C4.7131 19.406 4.52069 19.3787 4.34151 19.31C4.16204 19.2411 4.00057 19.1323 3.8693 18.9919L2.92351 18.0658L2.92282 18.0651C2.79024 17.9312 2.69022 17.7686 2.63047 17.5899C2.57084 17.4116 2.55291 17.2219 2.57807 17.0356C2.62211 16.6638 2.72959 16.3304 2.90424 16.0393L2.90437 16.0391L3.83674 14.4924C3.76385 14.3448 3.69415 14.1955 3.62769 14.0448L3.62752 14.0445C3.55773 13.8848 3.49754 13.7212 3.44724 13.5544L1.80955 13.1595L1.80802 13.159C1.46509 13.0672 1.14477 12.9057 0.867033 12.6846C0.717198 12.573 0.596256 12.4271 0.514327 12.2592C0.432307 12.091 0.391785 11.9057 0.396146 11.7187V10.4021C0.396146 9.99606 0.55237 9.6488 0.859457 9.37237C1.15457 9.10534 1.47407 8.93982 1.81602 8.87849L3.42699 8.52409C3.48078 8.34778 3.54437 8.17458 3.61746 8.00532L3.61755 8.00512C3.69119 7.83537 3.76406 7.66927 3.83796 7.50827L2.90397 5.9589L2.90358 5.95823C2.72487 5.65337 2.61381 5.31364 2.57793 4.9621C2.55276 4.77586 2.57061 4.58632 2.63012 4.40805C2.68988 4.22905 2.79004 4.06621 2.92283 3.93214L2.92355 3.93142L3.86932 3.00672C4.00059 2.86633 4.16205 2.75759 4.34151 2.68871C4.52121 2.61974 4.71423 2.59256 4.90597 2.60921C5.29954 2.6301 5.64069 2.73495 5.92234 2.92772L7.38325 3.8554C7.75733 3.66057 8.14697 3.49718 8.54814 3.36692L8.96316 1.74732C9.04173 1.40271 9.19713 1.0803 9.41776 0.80416C9.53302 0.652807 9.68276 0.531165 9.85454 0.449369C10.0262 0.367642 10.2148 0.328064 10.4048 0.333908H11.7209C12.1273 0.333908 12.4709 0.49041 12.7419 0.798389C13.0005 1.09219 13.1695 1.40295 13.2438 1.72928L13.244 1.73006L13.6001 3.38897C13.9684 3.51508 14.3284 3.66417 14.678 3.83536ZM19.9963 11.7413L17.547 12.3596L17.3208 13.0383C17.266 13.2027 17.2083 13.3643 17.1465 13.5217C17.0847 13.6804 17.0116 13.835 16.9301 13.9854L16.5999 14.6444L17.8969 16.7845C17.9333 16.8435 17.9643 16.9055 17.9896 16.97C18.0085 17.016 18.0189 17.065 18.0206 17.1147L17.1563 17.9789C17.114 17.9644 17.0727 17.947 17.0327 17.9269L16.9301 17.8764L14.7689 16.4965L14.0887 16.8463C13.7701 17.0078 13.4399 17.1454 13.1008 17.2581L12.38 17.5054L11.846 19.9546C11.8172 20.0529 11.7678 20.1439 11.7012 20.2216H10.5068C10.4761 20.189 10.4517 20.1508 10.4351 20.1092C10.4155 20.0614 10.3986 20.0024 10.3845 19.935L9.76623 17.504L9.06643 17.2791C8.69639 17.1614 8.33796 17.01 7.99565 16.8267L7.31692 16.4754L5.15567 17.8553C5.11346 17.8832 5.06877 17.9072 5.02218 17.9269C4.9744 17.948 4.92943 17.9579 4.88727 17.9579L4.02306 17.1147C4.02469 17.065 4.03516 17.016 4.05397 16.97C4.07693 16.9111 4.10815 16.8557 4.14672 16.8056L5.4859 14.5615L5.17675 13.9235C5.02221 13.6496 4.89737 13.3599 4.80437 13.0594L4.57953 12.3596L2.17096 11.7413C2.10068 11.7309 2.03152 11.714 1.96439 11.6907C1.911 11.6696 1.86884 11.6457 1.84073 11.6176V10.4049C1.87397 10.3967 1.90541 10.3824 1.93348 10.3628C1.97631 10.3378 2.02149 10.3171 2.06838 10.301L4.55986 9.7445L4.78469 9.02504C4.82691 8.87074 4.87853 8.71916 4.93927 8.57116C5.0078 8.4052 5.07995 8.24075 5.15567 8.07794L5.4845 7.43998L4.14672 5.21697C4.11077 5.15779 4.07975 5.09575 4.05397 5.03148C4.0343 4.97668 4.02306 4.9289 4.02306 4.88675L4.88727 4.02255C4.92968 4.03693 4.971 4.0543 5.01093 4.07455L5.11492 4.12513L7.31692 5.52611L7.99565 5.17481C8.33796 4.9915 8.69639 4.84004 9.06643 4.72234L9.76623 4.49751L10.3635 2.10868C10.3737 2.03715 10.3946 1.96754 10.4253 1.90212C10.446 1.85741 10.4735 1.81617 10.5068 1.77987H11.7209L11.7631 1.85153C11.7907 1.89996 11.8115 1.95198 11.8249 2.0061L12.3603 4.4961L13.0812 4.74342C13.2581 4.78391 13.4304 4.84229 13.5955 4.91766C13.7612 4.99357 13.9257 5.07227 14.0887 5.15373L14.7675 5.50503L16.8894 4.14621C16.9685 4.09368 17.0613 4.06536 17.1563 4.06471L18.0206 4.90783C18.017 4.95045 18.0066 4.99222 17.9896 5.03148C17.9667 5.09041 17.9355 5.14577 17.8969 5.19589L16.5999 7.35708L16.9301 8.01611C17.021 8.18337 17.1035 8.35501 17.1774 8.53041C17.2445 8.69094 17.2995 8.85628 17.3418 9.02504L17.5681 9.7445L20.0174 10.301C20.123 10.3265 20.2214 10.3755 20.3055 10.4443L20.2858 11.619L20.2844 11.6176C20.2839 11.6181 20.2834 11.6185 20.283 11.619C20.2508 11.6496 20.2131 11.6739 20.172 11.6907C20.1153 11.7135 20.0564 11.7305 19.9963 11.7413ZM20.1244 11.5735C20.137 11.5684 20.149 11.5622 20.1604 11.5549L20.1779 10.5071C20.1202 10.4687 20.0561 10.4406 19.9885 10.4241C19.9882 10.424 19.9879 10.424 19.9876 10.4239L17.4692 9.85174L17.2201 9.05943L17.2192 9.05583C17.1784 8.89323 17.1254 8.73392 17.0608 8.57925C16.9885 8.40778 16.9078 8.23999 16.819 8.07649L16.818 8.07465L16.4557 7.35159L17.7922 5.12455L17.7967 5.11876C17.8279 5.07816 17.8532 5.03331 17.8718 4.98558L17.8726 4.98344L17.8735 4.98133C17.8777 4.97164 17.8813 4.96171 17.8843 4.95162L17.1086 4.1948C17.0554 4.20237 17.0044 4.2217 16.9593 4.25161L16.9584 4.25217L14.7742 5.65093L14.0322 5.26688C14.0319 5.26675 14.0317 5.26662 14.0314 5.26649C13.8699 5.1858 13.707 5.10784 13.5428 5.03266C13.3856 4.96088 13.2214 4.90527 13.053 4.86671L13.0464 4.86522L12.2517 4.59255L11.7017 2.03471C11.6911 1.99279 11.675 1.95249 11.6536 1.9149C11.6535 1.91467 11.6533 1.91443 11.6532 1.9142L11.6486 1.90635H10.5677C10.5572 1.92187 10.548 1.93822 10.5401 1.95526L10.5399 1.95556L10.5398 1.95587C10.5144 2.00996 10.4972 2.06752 10.4887 2.12668L10.4877 2.13308L9.87188 4.59642L9.10477 4.84287C8.74212 4.95822 8.39084 5.10666 8.05535 5.28631L8.05457 5.28673L7.31042 5.67189L5.05311 4.23572L4.95467 4.18783L4.95374 4.18736C4.94205 4.18143 4.93022 4.17579 4.91826 4.17043L4.15593 4.93275C4.15952 4.94787 4.1648 4.96565 4.17224 4.98658C4.19526 5.04363 4.22287 5.09872 4.25481 5.1513L4.25509 5.15175L5.62925 7.43522L5.26928 8.1336C5.19475 8.29394 5.12371 8.45587 5.05623 8.6193C4.99747 8.76249 4.94753 8.90913 4.90669 9.05842L4.90609 9.06061L4.65877 9.85201L2.10316 10.4228C2.06779 10.4354 2.03363 10.4511 2.00108 10.4698C1.99012 10.4772 1.97881 10.4841 1.96721 10.4904V11.5533C1.97828 11.5592 1.99185 11.5655 2.00838 11.5721C2.06725 11.5923 2.12786 11.6071 2.18944 11.6162L2.19599 11.6171L4.67859 12.2544L4.92499 13.0213L4.92519 13.022C5.01554 13.3139 5.1368 13.5953 5.28692 13.8614L5.28885 13.8648L5.62947 14.5677L4.25151 16.8768L4.24696 16.8827C4.21572 16.9233 4.19042 16.9682 4.17183 17.0159L4.17145 17.0169L4.17105 17.0179C4.16447 17.034 4.15936 17.0506 4.15575 17.0675L4.93229 17.8251C4.94418 17.8219 4.9571 17.8174 4.97113 17.8112L4.97195 17.8109L4.97279 17.8105C5.01227 17.7938 5.05014 17.7734 5.08592 17.7498L5.08676 17.7492L7.31031 16.3295L8.05457 16.7148L8.05535 16.7152C8.39084 16.8948 8.74212 17.0433 9.10477 17.1586L9.87156 17.405L10.5078 19.9065L10.5084 19.9092C10.5214 19.9719 10.5364 20.0229 10.5521 20.061L10.5523 20.0617L10.5526 20.0623C10.5571 20.0737 10.5626 20.0847 10.5688 20.0951H11.6396C11.6765 20.0428 11.7049 19.9847 11.7234 19.9231L12.2716 17.4089L13.0598 17.1384L13.0604 17.1382L13.061 17.138C13.394 17.0274 13.7183 16.8923 14.0313 16.7337C14.0314 16.7336 14.0315 16.7336 14.0316 16.7335L14.7756 16.3507L16.9923 17.766L17.0886 17.8135L17.089 17.8137L17.0893 17.8139C17.1012 17.8198 17.1133 17.8255 17.1255 17.8309L17.8881 17.0684C17.8844 17.0511 17.8793 17.0342 17.8726 17.0179L17.8722 17.0171L17.8719 17.0162C17.8494 16.9588 17.8217 16.9035 17.7893 16.851L17.789 16.8505L16.4555 14.6502L16.8179 13.9269L16.8189 13.9251C16.8982 13.7788 16.969 13.629 17.0286 13.4758L17.0288 13.4754C17.0896 13.3205 17.1465 13.1611 17.2008 12.9983L17.4489 12.2539L19.9696 11.6176L19.9739 11.6168C20.0255 11.6075 20.0759 11.593 20.1244 11.5735ZM11.0633 7.04793C12.1607 7.04793 13.098 7.43155 13.8737 8.20019C14.2494 8.56186 14.5465 8.99708 14.7464 9.47869C14.9464 9.9603 15.0449 10.478 15.0359 10.9993C15.0449 11.5207 14.9464 12.0384 14.7464 12.52C14.5465 13.0016 14.2494 13.4368 13.8737 13.7985C13.508 14.1713 13.0703 14.4657 12.5871 14.6638C12.1039 14.8619 11.5854 14.9595 11.0633 14.9507C10.5445 14.9581 10.0296 14.8597 9.55003 14.6616C9.07047 14.4635 8.63627 14.1698 8.27388 13.7985C7.89795 13.4369 7.6006 13.0018 7.40041 12.5202C7.20021 12.0385 7.10147 11.5208 7.11035 10.9993C7.10147 10.4778 7.20021 9.96013 7.40041 9.47852C7.6006 8.9969 7.89795 8.56174 8.27388 8.20019C8.63627 7.82886 9.07047 7.5352 9.55003 7.3371C10.0296 7.13901 10.5445 7.04062 11.0633 7.04793ZM8.18477 8.11042C7.79698 8.48374 7.49023 8.93291 7.28362 9.42997C7.07702 9.92698 6.97498 10.4612 6.98385 10.9993C6.97498 11.5375 7.07702 12.0717 7.28362 12.5687C7.49022 13.0658 7.79697 13.5149 8.18474 13.8882C8.55885 14.2712 9.00692 14.5741 9.50174 14.7785C9.99656 14.9829 10.5278 15.0845 11.0631 15.0772C11.6017 15.086 12.1366 14.9852 12.635 14.7808C13.1336 14.5764 13.5853 14.2728 13.9627 13.8884C14.3503 13.5149 14.6569 13.0656 14.8633 12.5685C15.0696 12.0715 15.1714 11.5374 15.1623 10.9993C15.1714 10.4613 15.0696 9.92718 14.8633 9.43019C14.6567 8.93279 14.35 8.48328 13.9621 8.10968C13.1628 7.31803 12.194 6.92166 11.0641 6.92145C10.5285 6.91402 9.99688 7.01567 9.50174 7.22021C9.00693 7.4246 8.55887 7.72748 8.18477 8.11042ZM12.837 12.7719L12.8372 12.7718C13.3278 12.2812 13.5716 11.6936 13.5716 10.9993C13.5716 10.305 13.3278 9.71614 12.8359 9.22561L12.8351 9.22485L12.8344 9.22407C12.6052 8.98755 12.33 8.80049 12.0257 8.67443C11.7214 8.54836 11.3945 8.48595 11.0652 8.49107L11.0642 8.49108H11.0633C10.3689 8.49108 9.78002 8.73491 9.28948 9.22677L9.2887 9.22756L9.2879 9.22833C9.05126 9.45741 8.86412 9.73259 8.73805 10.0369C8.61198 10.3411 8.54965 10.668 8.55492 10.9973L8.55494 10.9983V10.9993C8.55494 11.6937 8.79877 12.2825 9.29065 12.7731L9.29077 12.7732C9.78139 13.2638 10.3689 13.5076 11.0633 13.5076C11.7576 13.5076 12.3465 13.2638 12.837 12.7719ZM9.19993 9.13746C9.71424 8.62175 10.3354 8.3646 11.0633 8.3646C11.4099 8.35922 11.7539 8.4249 12.0741 8.55758C12.3943 8.69026 12.684 8.88713 12.9252 9.13605C13.4409 9.65035 13.6981 10.2714 13.6981 10.9993C13.6981 11.7272 13.4409 12.3469 12.9266 12.8612C12.4123 13.3769 11.7912 13.6341 11.0633 13.6341C10.3354 13.6341 9.71565 13.3769 9.20133 12.8626C8.68561 12.3483 8.42846 11.7272 8.42846 10.9993C8.42291 10.6527 8.48851 10.3087 8.6212 9.98844C8.7539 9.66819 8.95086 9.37856 9.19993 9.13746Z" fill="white"/>
</svg>
