<svg width="55" height="26" viewBox="0 0 55 26" fill="none" xmlns="http://www.w3.org/2000/svg">
<path fill-rule="evenodd" clip-rule="evenodd" d="M36.943 25.5807L32.8182 21.4357V12.9088L45.664 0H53.56L54.0315 0.473717V4.26346L46.7247 11.7245L47.4318 12.4943H53.4422L54.0315 13.1456V17.1722L45.664 25.5807H36.943ZM41.5392 4.73717V12.5535L45.5462 16.5801H53.56V12.968H47.1961L45.3105 11.0139V6.39518L47.4318 4.20424H53.56V0.473717H45.7819L41.5392 4.73717ZM4.08859 25.6431V13.0341H0V8.57239L8.4142 0.124803H12.7991L13.5101 0.838682L14.4582 0.124803H21.2133V4.64604L17.1247 8.86983V17.1389L8.53271 25.6431H4.08859ZM12.9768 4.34859V16.901H16.7099V4.64604L12.562 0.481743H8.88824V4.34859H12.9768ZM20.8577 0.481743H15.2878L18.9616 4.17012H20.8577V0.481743Z" fill="#546992"/>
<path fill-rule="evenodd" clip-rule="evenodd" d="M16.9706 25.5807V21.1988V19.0079V14.9221L16.9776 12.8496H17.0885V8.52691L25.5738 0H38.1839V4.73717V8.52691L36.2394 10.8955L34.8841 12.3166V12.6127H38.1839V17.2907L29.9343 25.5807H16.9706ZM37.8304 13.0272H25.9274V16.5801H25.9481V16.5991H37.8511V13.0462H37.8304V13.0272ZM35.709 6.75047H25.8095V10.0665H25.8303V10.0855H35.7298V6.7695H35.709V6.75047ZM37.8304 0.355287H25.9274V4.0266H25.9481V4.04563H37.8511V0.374318H37.8304V0.355287Z" fill="#546992"/>
</svg>
