<svg width="42" height="42" viewBox="0 0 42 42" fill="none" xmlns="http://www.w3.org/2000/svg">
<path fill-rule="evenodd" clip-rule="evenodd" d="M17.5398 2.45123L15.3924 0.113522C18.625 -0.313801 27.1542 0.234178 35.411 5.84467C35.5184 6.61957 35.4953 7.392 35.4953 7.392L35.7112 7.51191C36.1056 8.05325 36.5585 9.07006 36.8288 10.3291C37.0982 11.5847 37.1735 13.0243 36.8619 14.3953C36.5468 15.7817 35.9483 16.9272 35.362 17.7651C34.7619 18.6227 34.2121 19.1066 34.038 19.211L33.9829 19.2441C32.9635 19.4342 31.5555 20.1818 30.9835 22.0634C29.3098 23.1057 26.4818 24.2471 22.6375 24.2471C19.2303 24.2471 15.7618 23.2609 13.1616 21.3614C10.5771 19.4734 8.84839 16.6871 8.84839 13.0156C8.84839 10.1032 10.1537 7.82504 11.8211 6.14175C13.5017 4.44515 15.7997 3.07274 17.1153 2.62225L17.4412 2.51067L17.4218 2.49404L17.5398 2.45123ZM31.7508 7.03205C31.1008 7.75901 30.493 8.10779 30.3195 8.20237C26.5236 7.33548 25.1561 5.22714 25.1561 5.22714C28.7365 5.20342 31.9681 6.11774 34.3324 7.66443C34.3324 7.66443 33.0525 7.21913 31.7508 7.03205Z" fill="#3164FA"/>
<path d="M14.1169 2.84903C6.06519 4.77117 0 12.1406 0 21.0056C0 32.5013 9.71691 42 21.7033 42C30.6539 42 38.1043 36.5274 42 29.2054C36.9323 30.4073 30.9031 28.3433 30.6051 23.7834C30.6143 23.7479 30.6234 23.7119 30.6325 23.6756C28.7413 24.6381 26.0427 25.4809 22.6375 25.4809C19.0133 25.4809 15.2787 24.4359 12.4338 22.3577C9.57329 20.268 7.61465 17.1302 7.61465 13.0156C7.61465 9.69904 9.11059 7.12494 10.9446 5.2735L10.9452 5.27284C11.8006 4.41748 12.9065 3.60149 13.923 2.96826C13.988 2.92782 14.0526 2.88806 14.1169 2.84903Z" fill="#3164FA"/>
<path d="M7.81152 13.0156C7.81152 9.76355 9.27702 7.23668 11.0844 5.41205C12.1302 4.36626 13.564 3.37379 14.7417 2.71168C13.564 3.37379 12.1302 4.36626 11.0844 5.41205C9.27702 7.23668 7.81152 9.76355 7.81152 13.0156Z" fill="#3164FA"/>
<path d="M35.6467 19.3923C36.017 19.5438 36.2434 19.7428 36.3619 19.8684C36.6465 20.17 37.3581 21.0749 36.5042 22.5077C38.2831 22.2061 41.0618 20.3962 41.2718 15.7962C41.4114 12.7383 39.8127 10.5069 37.7035 8.84839C37.8308 9.23241 37.9433 9.64265 38.0351 10.0702C38.3326 11.4565 38.4254 13.0828 38.0649 14.6687C37.7081 16.239 37.0325 17.5296 36.3729 18.4724C36.1285 18.8217 35.881 19.1306 35.6467 19.3923Z" fill="#3164FA"/>
</svg>
